<svg xmlns="http://www.w3.org/2000/svg" width="14.997" height="15" viewBox="0 0 14.997 15">
    <path d="M1.607 34.143v10.714a.537.537 0 0 0 .536.536h10.714a.537.537 0 0 0 .536-.536v-8.22a.538.538 0 0 0-.157-.378l1.135-1.135A2.144 2.144 0 0 1 15 36.641v8.217A2.145 2.145 0 0 1 12.854 47H2.143A2.145 2.145 0 0 1 0 44.857V34.143A2.145 2.145 0 0 1 2.143 32h8.22a2.144 2.144 0 0 1 1.517.626l2.494 2.494-1.135 1.135-2.5-2.491-.027-.027v3.352a.8.8 0 0 1-.8.8h-6.43a.8.8 0 0 1-.8-.8v-3.482h-.539a.537.537 0 0 0-.536.536zm2.679-.536v2.679h4.821v-2.679zm1.071 8.036A2.143 2.143 0 1 1 7.5 43.786a2.143 2.143 0 0 1-2.143-2.143z" transform="translate(0 -32)" style="fill:#adc5e2"/>
</svg>
